<svg xmlns="http://www.w3.org/2000/svg" width="24" height="24" viewBox="0 0 24 24">
  <g id="Iconly_Bold_Calling" data-name="Iconly/Bold/Calling" transform="translate(-2 -2)">
    <g id="Group" transform="translate(17.398 2)">
      <g id="Calling" transform="translate(0)">
        <path id="Fill-1" d="M1.418,3.49a.861.861,0,0,0-.327,1.69A3.462,3.462,0,0,1,3.835,7.93h0a.859.859,0,0,0,.841.7.933.933,0,0,0,.165-.015A.865.865,0,0,0,5.518,7.6a5.174,5.174,0,0,0-4.1-4.11" transform="translate(-0.398 0)" fill="#eb1d25"/>
        <path id="Fill-3" d="M1.356.008A.817.817,0,0,0,.73.184a.863.863,0,0,0,.434,1.534A6.912,6.912,0,0,1,7.29,7.857a.857.857,0,0,0,.851.764.8.8,0,0,0,.1-.006A.847.847,0,0,0,8.813,8.3a.856.856,0,0,0,.181-.633A8.616,8.616,0,0,0,1.356.008" transform="translate(-0.398 0)" fill="#eb1d25"/>
      </g>
    </g>
    <g id="Call" transform="translate(2 3)">
      <path id="Stroke-1" d="M10.933,12.072c4.829,4.828,5.924-.757,9,2.315,2.964,2.963,4.668,3.557.912,7.311-.47.378-3.459,4.926-13.963-5.574S.922,2.63,1.3,2.159C5.065-1.605,5.648.108,8.612,3.071,11.687,6.145,6.1,7.244,10.933,12.072Z" transform="translate(0 0)" fill="#eb1d25" fill-rule="evenodd"/>
    </g>
  </g>
</svg>
