<svg xmlns="http://www.w3.org/2000/svg" width="24" height="21.6" viewBox="0 0 24 21.6">
  <g id="Iconly_Bold_Message" data-name="Iconly/Bold/Message" transform="translate(-2 -3)">
    <g id="Message" transform="translate(2 3)">
      <path id="Path_11" data-name="Path 11" d="M17.927,0A6.068,6.068,0,0,1,24,6.06h0v9.48a6.069,6.069,0,0,1-6.073,6.06H6.072A6.068,6.068,0,0,1,0,15.54H0V6.06A6.06,6.06,0,0,1,6.072,0H17.927Zm1.357,6.24a.912.912,0,0,0-.673.24h0L13.2,10.8a1.88,1.88,0,0,1-2.4,0h0L5.4,6.48A.917.917,0,0,0,4.115,7.764h0l.157.156,5.46,4.26a3.779,3.779,0,0,0,4.691,0h0l5.413-4.332.1-.1a.928.928,0,0,0-.013-1.2A1.009,1.009,0,0,0,19.284,6.24Z" fill="#eb1d25"/>
    </g>
  </g>
</svg>
