<svg xmlns="http://www.w3.org/2000/svg" width="129.298" height="129.298" viewBox="0 0 129.298 129.298">
  <g id="Iconly_Broken_Play" data-name="Iconly/Broken/Play" transform="translate(-2 -2)">
    <g id="Play" transform="translate(2 2)">
      <path id="Path_375" data-name="Path 375" d="M64.649,0A64.649,64.649,0,1,1,38.705,123.88a4.678,4.678,0,1,1,3.763-8.566,55.322,55.322,0,1,0-22.285-17.8,4.68,4.68,0,0,1-7.525,5.566A64.656,64.656,0,0,1,64.649,0ZM57.3,38.986a20.384,20.384,0,0,1,5.146,1.442C69.04,42.983,81.236,51.1,86.917,56.6l.986,1,.511.55c.608.64,1.358,1.455,1.532,1.674a7.855,7.855,0,0,1,1.668,4.829,7.774,7.774,0,0,1-1.487,4.577c-.181.243-.834.974-1.418,1.608l-.418.448-.317.336c-5.262,5.663-18.289,14.223-24.87,17a28.256,28.256,0,0,1-5.288,1.645l-.562.049H57.02A7.827,7.827,0,0,1,50.128,86.1a24.552,24.552,0,0,1-1.347-4.884l-.134-.71-.019-.108a105.353,105.353,0,0,1-.951-15.755,100.329,100.329,0,0,1,1.054-16.33,35.4,35.4,0,0,1,1.138-4.571,7.783,7.783,0,0,1,3.472-3.821A8.132,8.132,0,0,1,57.3,38.986Zm.873,9.827c-.1.446-.187.886-.239,1.183a95.084,95.084,0,0,0-.905,14.649,97.8,97.8,0,0,0,.834,14.236c.065.4.187,1.015.323,1.61.465-.187.97-.375,1.287-.5C65.463,77.465,77.19,69.481,81.114,65.24a3.031,3.031,0,0,0,.375-.388c.058-.065.123-.136.194-.2l-.045-.048h0l-.045-.048-.543-.575C77,59.641,64.642,51.315,59.037,49.136,58.836,49.058,58.526,48.942,58.177,48.813Z" fill="#fff"/>
    </g>
  </g>
</svg>
